<svg xmlns="http://www.w3.org/2000/svg" width="20" height="20" viewBox="0 0 20 20">
    <g fill="#9DAFBD" fill-rule="nonzero">
        <path d="M12.946 5.307H7c-.95 0-1.721.772-1.721 1.72v5.945c0 .95.772 1.722 1.72 1.722h5.946c.948 0 1.72-.772 1.72-1.722V7.028c0-.95-.771-1.721-1.72-1.721zM9.973 13.09A3.094 3.094 0 0 1 6.883 10a3.094 3.094 0 0 1 3.09-3.09 3.094 3.094 0 0 1 3.09 3.09 3.094 3.094 0 0 1-3.09 3.09zm3.19-5.541a.732.732 0 1 1 .001-1.464.732.732 0 0 1-.001 1.464z"/>
        <path d="M9.973 8.216c-.983 0-1.784.8-1.784 1.784s.8 1.784 1.784 1.784 1.784-.8 1.784-1.784-.8-1.784-1.784-1.784z"/>
        <path d="M9.973 0C4.465 0 0 4.465 0 9.973c0 5.508 4.465 9.973 9.973 9.973 5.508 0 9.973-4.465 9.973-9.973C19.946 4.465 15.481 0 9.973 0zm6 12.972A3.03 3.03 0 0 1 12.945 16H7a3.03 3.03 0 0 1-3.027-3.027V7.028A3.03 3.03 0 0 1 7.001 4h5.945a3.03 3.03 0 0 1 3.026 3.027v5.944z"/>
    </g>
</svg>
