<svg xmlns="http://www.w3.org/2000/svg" width="20" height="20" viewBox="0 0 20 20">
    <g fill="none" fill-rule="nonzero">
        <circle cx="9.929" cy="9.929" r="9.929" fill="#9DAFBD"/>
        <path fill="#FFF" d="M10.73 13.296c-.75-.058-1.066-.43-1.654-.788-.324 1.698-.72 3.325-1.89 4.175-.362-2.565.53-4.493.945-6.538-.707-1.19.085-3.583 1.575-2.993 1.834.725-1.588 4.422.71 4.884 2.398.482 3.377-4.162 1.89-5.672-2.15-2.181-6.256-.05-5.751 3.072.123.763.912.995.315 2.048-1.375-.305-1.786-1.39-1.733-2.836.085-2.367 2.127-4.024 4.175-4.254 2.59-.29 5.022.951 5.357 3.388.378 2.75-1.169 5.728-3.939 5.514z"/>
    </g>
</svg>
