<svg xmlns="http://www.w3.org/2000/svg" width="20" height="20" viewBox="0 0 20 20">
    <g fill="none" fill-rule="nonzero">
        <circle cx="9.929" cy="9.929" r="9.929" fill="#9DAFBD"/>
        <path fill="#FFF" d="M16.568 7.113a4.735 4.735 0 0 1-1.363.373 2.38 2.38 0 0 0 1.043-1.313c-.458.272-.966.47-1.507.576a2.374 2.374 0 0 0-4.044 2.165 6.737 6.737 0 0 1-4.892-2.48 2.373 2.373 0 0 0 .734 3.169 2.357 2.357 0 0 1-1.074-.297v.03c0 1.15.818 2.109 1.903 2.327a2.365 2.365 0 0 1-1.071.04 2.376 2.376 0 0 0 2.217 1.649A4.762 4.762 0 0 1 5 14.335 6.713 6.713 0 0 0 8.638 15.4c4.365 0 6.752-3.616 6.752-6.753 0-.103-.002-.205-.007-.307a4.813 4.813 0 0 0 1.185-1.228z"/>
    </g>
</svg>
