<svg xmlns="http://www.w3.org/2000/svg" width="20" height="20" viewBox="0 0 20 20">
    <g fill="none" fill-rule="evenodd">
        <circle cx="9.929" cy="9.929" r="9.929" fill="#9DAFBD" fill-rule="nonzero"/>
        <path fill="#FFF" d="M9.554 14.284h.78s.234-.026.355-.156c.11-.119.107-.342.107-.342s-.015-1.046.47-1.2c.478-.151 1.093 1.01 1.744 1.458.492.338.866.264.866.264l1.741-.024s.911-.057.48-.773c-.036-.058-.252-.53-1.295-1.498-1.092-1.013-.946-.849.37-2.602.8-1.067 1.12-1.719 1.02-1.998-.095-.266-.684-.195-.684-.195l-1.96.012s-.146-.02-.253.044a.55.55 0 0 0-.174.21s-.31.827-.724 1.53c-.873 1.482-1.222 1.56-1.364 1.468-.332-.215-.25-.862-.25-1.322 0-1.436.219-2.035-.424-2.19-.213-.052-.37-.086-.914-.091-.7-.007-1.292.002-1.627.166-.223.11-.395.353-.29.367.13.017.423.079.578.29.201.274.194.888.194.888s.115 1.69-.27 1.9c-.264.145-.626-.15-1.405-1.494-.398-.689-.7-1.45-.7-1.45s-.057-.143-.16-.219a.812.812 0 0 0-.302-.121L3.6 7.218s-.28.008-.382.13c-.092.107-.008.331-.008.331s1.459 3.412 3.11 5.132c1.514 1.576 3.234 1.473 3.234 1.473z"/>
    </g>
</svg>
