<svg xmlns="http://www.w3.org/2000/svg" xmlns:xlink="http://www.w3.org/1999/xlink" width="145" height="145" viewBox="0 0 145 145">
    <defs>
        <path id="a" d="M0 0h90v90H0z"/>
    </defs>
    <g fill="none" fill-rule="evenodd">
        <path fill="#FFF" d="M0 0h145v145H0z"/>
        <g transform="translate(28 32)">
            <mask id="b" fill="#fff">
                <use xlink:href="#a"/>
            </mask>
            <path fill="#EC475C" d="M87.272 14.16L62.89 38.539 50.322 25.974c-.51-.513-1.416-.513-1.928 0l-16.532 16.53-7.019-7.018a1.36 1.36 0 0 0-1.926 0l-7.71 7.699a21.534 21.534 0 0 1-1.31-7.097l9.982-9.984 7.02 7.018c.254.255.601.401.963.401s.709-.146.964-.401l16.532-16.528 12.566 12.562a1.365 1.365 0 0 0 1.93 0L87.272 5.741v8.419zM35.714 68.694c-18.188 0-32.986-14.797-32.986-32.983 0-18.187 14.798-32.983 32.986-32.983 13.235 0 25.34 8.12 30.427 20.284l-3.251 3.251L50.322 13.7a1.366 1.366 0 0 0-1.928 0l-16.532 16.53-7.019-7.017c-.51-.51-1.416-.51-1.928 0l-11.349 11.35a1.36 1.36 0 0 0-.399.95l-.002.2c0 3.655.786 7.175 2.335 10.456.187.401.56.686.997.765.08.01.156.017.235.017.358 0 .707-.139.964-.398l8.183-8.173 7.02 7.017a1.358 1.358 0 0 0 1.927 0l16.532-16.53L61.924 41.43c.512.512 1.418.512 1.93 0l4.825-4.824c-.477 17.773-15.075 32.088-32.965 32.088zm33.233-5.036a39.943 39.943 0 0 1-5.3 5.295l-5.488-5.49a36.156 36.156 0 0 0 5.297-5.293l5.49 5.488zm4.133-.9l12.487 12.486a5.824 5.824 0 0 1 0 8.231l-2.1 2.098a5.827 5.827 0 0 1-8.23 0L62.744 73.086A42.803 42.803 0 0 0 73.08 62.758zM90 14.723V2.449c0-.55-.334-1.05-.842-1.258a1.358 1.358 0 0 0-1.487.292L68.195 20.961C62.449 8.357 49.673 0 35.714 0 16.022 0 0 16.02 0 35.711c0 19.692 16.022 35.71 35.714 35.71a35.52 35.52 0 0 0 20.237-6.306l5.525 5.52c-.527.379-1.06.748-1.605 1.102a1.363 1.363 0 0 0-.221 2.108l13.657 13.656A8.514 8.514 0 0 0 79.352 90a8.517 8.517 0 0 0 6.044-2.5l2.1-2.097c3.333-3.334 3.333-8.757 0-12.087L73.842 59.662a1.363 1.363 0 0 0-2.108.221 38.373 38.373 0 0 1-1.102 1.602l-5.523-5.52a35.502 35.502 0 0 0 6.322-20.254c0-.603-.03-1.2-.06-1.796L89.6 15.686c.256-.255.4-.602.4-.963z" mask="url(#b)"/>
            <path fill="#EC475C" d="M21.339 23c.407 0 .807-.188 1.072-.545 4.093-5.542 10.34-8.725 17.133-8.725 1.956 0 3.892.27 5.757.798a1.335 1.335 0 0 0 1.65-.95c.197-.727-.22-1.48-.932-1.682A23.627 23.627 0 0 0 39.544 11c-7.645 0-14.669 3.575-19.274 9.811a1.385 1.385 0 0 0 .264 1.915c.241.186.525.274.805.274M58.12 43.087c-.702-.259-1.494.08-1.765.76-3.22 8.088-11.438 13.52-20.449 13.52-6.328 0-12.346-2.635-16.508-7.228a1.407 1.407 0 0 0-1.93-.126 1.279 1.279 0 0 0-.131 1.853C22.017 57.034 28.787 60 35.907 60c10.136 0 19.38-6.114 23.002-15.215.27-.678-.083-1.436-.788-1.698" mask="url(#b)"/>
        </g>
    </g>
</svg>
