<svg xmlns="http://www.w3.org/2000/svg" width="145" height="145" viewBox="0 0 145 145">
    <g fill="none" fill-rule="evenodd">
        <path fill="#FFF" d="M0 0h145v145H0z"/>
        <path fill="#EC475C" d="M114.938 63.35l-3.257 8.511-15.132-.74a1.39 1.39 0 1 0-.138 2.778l14.224.694-2.91 7.605c-1.236 3.24-4.406 5.415-7.881 5.415H42.746V71.27l13.48.661h.069c.738 0 1.353-.579 1.392-1.32a1.391 1.391 0 0 0-1.327-1.456l-13.614-.668V49.863l26.66 3.082v10.85h-7.748c-.564 0-1.072.34-1.288.862a1.383 1.383 0 0 0 .3 1.513l15.706 15.652c.263.26.615.409.985.409s.725-.15.985-.409L94.052 66.17c.398-.397.517-.995.3-1.513a1.395 1.395 0 0 0-1.287-.861h-7.516V54.81l26.021 3.009a4.092 4.092 0 0 1 3.04 1.945 4.056 4.056 0 0 1 .328 3.585m-67.076 42.383c0 3.576-2.92 6.487-6.51 6.487s-6.51-2.911-6.51-6.487c0-3.579 2.92-6.49 6.51-6.49s6.51 2.911 6.51 6.49m52.484-6.49c3.59 0 6.509 2.911 6.509 6.49 0 3.576-2.92 6.487-6.509 6.487a6.5 6.5 0 0 1-6.498-6.361c.004-.042.025-.082.025-.126 0-.046-.02-.084-.025-.13a6.498 6.498 0 0 1 6.498-6.36m16.648-40.92a6.856 6.856 0 0 0-5.102-3.262L85.55 52.014V41.868a1.394 1.394 0 0 0-2.789 0v23.32a1.39 1.39 0 0 0 1.394 1.387H89.7l-12.34 12.3-12.337-12.3H70.8a1.39 1.39 0 0 0 1.394-1.387V40.323c0-.767-.625-1.39-1.394-1.39-.77 0-1.395.623-1.395 1.39v9.827l-26.722-3.09C42.045 39.202 35.438 33 27.393 33a1.39 1.39 0 0 0 0 2.778c6.927 0 12.566 5.62 12.566 12.524v48.28c-4.468.67-7.906 4.514-7.906 9.15 0 5.11 4.172 9.268 9.3 9.268 4.651 0 8.506-3.427 9.182-7.88h40.628c.675 4.453 4.53 7.88 9.183 7.88 5.127 0 9.298-4.159 9.298-9.267 0-5.11-4.17-9.27-9.298-9.27-4.654 0-8.506 3.428-9.183 7.879H50.535c-.607-3.997-3.777-7.156-7.789-7.76V90.39h57.098c4.625 0 8.84-2.892 10.488-7.2l7.21-18.848a6.818 6.818 0 0 0-.548-6.02"/>
    </g>
</svg>
