<svg xmlns="http://www.w3.org/2000/svg" width="145" height="145" viewBox="0 0 145 145">
    <g fill="none" fill-rule="evenodd">
        <path fill="#FFF" d="M0 0h145v145H0z"/>
        <path fill="#C72FAA" d="M38.425 46.122h75.152v-9.697H38.425v9.697zM114.788 34H37.213c-.67 0-1.213.542-1.213 1.213v77.574c0 .671.543 1.213 1.213 1.213h50.1a1.212 1.212 0 0 0 0-2.423H38.425v-63.03h75.15v63.03h-4.442a1.212 1.212 0 1 0 0 2.423h5.655c.67 0 1.212-.542 1.212-1.213V35.213c0-.671-.542-1.213-1.212-1.213z"/>
        <path fill="#EC475C" stroke="#EC475C" stroke-width=".5" d="M38.425 46.122h75.152v-9.697H38.425v9.697zM114.788 34H37.213c-.67 0-1.213.542-1.213 1.213v77.574c0 .671.543 1.213 1.213 1.213h50.1a1.212 1.212 0 0 0 0-2.423H38.425v-63.03h75.15v63.03h-4.442a1.212 1.212 0 1 0 0 2.423h5.655c.67 0 1.212-.542 1.212-1.213V35.213c0-.671-.542-1.213-1.212-1.213z"/>
        <path fill="#EC475C" stroke="#EC475C" d="M107.3 40.28c-.19.192-.3.452-.3.715A1.006 1.006 0 0 0 108 42c.27 0 .52-.11.71-.292.191-.19.29-.453.29-.713 0-.263-.099-.523-.29-.715-.37-.373-1.04-.373-1.41 0"/>
        <path stroke="#C72FAA" stroke-width=".5" d="M107.3 40.28c-.19.192-.3.452-.3.715A1.006 1.006 0 0 0 108 42c.27 0 .52-.11.71-.292.191-.19.29-.453.29-.713 0-.263-.099-.523-.29-.715-.37-.373-1.04-.373-1.41 0z"/>
        <path fill="#EC475C" stroke="#EC475C" d="M101 40c-.55 0-1 .45-1 1s.45 1 1 1c.56 0 1-.45 1-1s-.44-1-1-1"/>
        <path stroke="#C72FAA" stroke-width=".5" d="M101 40c-.55 0-1 .45-1 1s.45 1 1 1c.56 0 1-.45 1-1s-.44-1-1-1z"/>
        <path fill="#EC475C" stroke="#EC475C" d="M94.3 40.28c-.19.192-.3.452-.3.715A1.006 1.006 0 0 0 95 42c.271 0 .52-.11.71-.292.191-.19.29-.453.29-.713 0-.263-.099-.523-.29-.715-.369-.373-1.04-.373-1.41 0"/>
        <path stroke="#C72FAA" stroke-width=".5" d="M94.3 40.28c-.19.192-.3.452-.3.715A1.006 1.006 0 0 0 95 42c.271 0 .52-.11.71-.292.191-.19.29-.453.29-.713 0-.263-.099-.523-.29-.715-.369-.373-1.04-.373-1.41 0z"/>
        <path fill="#C72FAA" d="M101.665 109.395l-1.274 1.273a3.147 3.147 0 0 1-4.446 0l-9.782-9.78a25.51 25.51 0 0 0 5.723-5.717l9.779 9.777c.592.594.92 1.383.92 2.223 0 .842-.328 1.632-.92 2.224zm-53.25-29.042c0-12.65 10.29-22.94 22.941-22.94 12.65 0 22.94 10.29 22.94 22.94 0 12.647-10.29 22.935-22.94 22.935-12.65 0-22.94-10.288-22.94-22.935zm44.818 12.751a25.139 25.139 0 0 0 3.478-12.751C96.71 66.373 85.337 55 71.356 55 57.374 55 46 66.372 46 80.353c0 13.978 11.374 25.35 25.356 25.35 4.647 0 8.992-1.278 12.74-3.467l10.141 10.139A5.548 5.548 0 0 0 98.168 114a5.55 5.55 0 0 0 3.932-1.625l1.271-1.273A5.516 5.516 0 0 0 105 107.17c0-1.484-.578-2.88-1.629-3.93L93.233 93.103z"/>
        <path fill="#EC475C" stroke="#EC475C" stroke-width=".5" d="M101.665 109.395l-1.274 1.273a3.147 3.147 0 0 1-4.446 0l-9.782-9.78a25.51 25.51 0 0 0 5.723-5.717l9.779 9.777c.592.594.92 1.383.92 2.223 0 .842-.328 1.632-.92 2.224zm-53.25-29.042c0-12.65 10.29-22.94 22.941-22.94 12.65 0 22.94 10.29 22.94 22.94 0 12.647-10.29 22.935-22.94 22.935-12.65 0-22.94-10.288-22.94-22.935zm44.818 12.751a25.139 25.139 0 0 0 3.478-12.751C96.71 66.373 85.337 55 71.356 55 57.374 55 46 66.372 46 80.353c0 13.978 11.374 25.35 25.356 25.35 4.647 0 8.992-1.278 12.74-3.467l10.141 10.139A5.548 5.548 0 0 0 98.168 114a5.55 5.55 0 0 0 3.932-1.625l1.271-1.273A5.516 5.516 0 0 0 105 107.17c0-1.484-.578-2.88-1.629-3.93L93.233 93.103z"/>
        <path fill="#C72FAA" d="M106.758 54H91.242c-.685 0-1.242.447-1.242 1 0 .553.557 1 1.242 1h15.516c.685 0 1.242-.447 1.242-1 0-.553-.557-1-1.242-1"/>
        <path fill="#EC475C" stroke="#EC475C" stroke-width=".5" d="M106.758 54H91.242c-.685 0-1.242.447-1.242 1 0 .553.557 1 1.242 1h15.516c.685 0 1.242-.447 1.242-1 0-.553-.557-1-1.242-1z"/>
        <path fill="#C72FAA" d="M106.735 63h-9.47c-.7 0-1.265.447-1.265 1.001 0 .552.566.999 1.265.999h9.47c.698 0 1.265-.447 1.265-.999 0-.554-.567-1.001-1.265-1.001"/>
        <path fill="#EC475C" stroke="#EC475C" stroke-width=".5" d="M106.735 63h-9.47c-.7 0-1.265.447-1.265 1.001 0 .552.566.999 1.265.999h9.47c.698 0 1.265-.447 1.265-.999 0-.554-.567-1.001-1.265-1.001z"/>
        <path fill="#C72FAA" d="M106.766 72h-5.532c-.682 0-1.234.447-1.234 1.001 0 .552.552.999 1.234.999h5.532c.68 0 1.234-.447 1.234-.999 0-.554-.553-1.001-1.234-1.001"/>
        <path fill="#EC475C" stroke="#EC475C" stroke-width=".5" d="M106.766 72h-5.532c-.682 0-1.234.447-1.234 1.001 0 .552.552.999 1.234.999h5.532c.68 0 1.234-.447 1.234-.999 0-.554-.553-1.001-1.234-1.001z"/>
        <path fill="#C72FAA" d="M106.724 80h-4.448c-.705 0-1.276.447-1.276 1 0 .553.57 1 1.276 1h4.448c.704 0 1.276-.447 1.276-1 0-.553-.572-1-1.276-1"/>
        <path fill="#EC475C" stroke="#EC475C" stroke-width=".5" d="M106.724 80h-4.448c-.705 0-1.276.447-1.276 1 0 .553.57 1 1.276 1h4.448c.704 0 1.276-.447 1.276-1 0-.553-.572-1-1.276-1z"/>
        <path fill="#C72FAA" d="M105.798 89h-6.594c-.665 0-1.204.447-1.204 1 0 .553.54 1 1.204 1h6.594c.663 0 1.202-.447 1.202-1 0-.553-.54-1-1.202-1"/>
        <path fill="#EC475C" stroke="#EC475C" stroke-width=".5" d="M105.798 89h-6.594c-.665 0-1.204.447-1.204 1 0 .553.54 1 1.204 1h6.594c.663 0 1.202-.447 1.202-1 0-.553-.54-1-1.202-1z"/>
    </g>
</svg>
