<svg xmlns="http://www.w3.org/2000/svg" width="145" height="145" viewBox="0 0 145 145">
    <g fill="none" fill-rule="evenodd">
        <path fill="#FFF" d="M0 0h145v145H0z"/>
        <path fill="#992C84" d="M67 114.73h13.725V101H67v13.73zm.992-.992h11.74v-11.746h-11.74v11.746z"/>
        <path stroke="#EC475C" stroke-width="1.5" d="M67.992 113.738h11.74v-11.746h-11.74v11.746zm-.992.993h13.725V101H67v13.73z"/>
        <path fill="#992C84" d="M38.992 107.738h11.74V95.992h-11.74v11.746zm-.992.993h13.725V95H38v13.73z"/>
        <path stroke="#EC475C" stroke-width="1.5" d="M38.992 107.738h11.74V95.992h-11.74v11.746zm-.992.993h13.725V95H38v13.73z"/>
        <path fill="#992C84" d="M38.992 48.738h11.74V36.992h-11.74v11.746zM38 49.73h13.725V36H38v13.73z"/>
        <path stroke="#EC475C" stroke-width="1.5" d="M38.992 48.738h11.74V36.992h-11.74v11.746zM38 49.73h13.725V36H38v13.73z"/>
        <path fill="#EC475C" d="M54 52.005h.58V51H54v1.005zm1.533 0h.953V51h-.953v1.005zm1.905 0h.953V51h-.953v1.005zm2.027.509l-.413-.762.292-.177V51h.397l.55 1.015-.826.499zm.946 1.745l-.473-.873.827-.5.474.874-.828.5zm.947 1.746l-.473-.873.827-.5.472.873-.826.5zm.946 1.745l-.473-.872.827-.5.474.873-.828.499zm.947 1.745l-.473-.873.826-.499.474.873-.827.5zm.946 1.745l-.473-.873.827-.499.473.873-.827.5zm.947 1.745l-.473-.872.826-.5.474.873-.827.5zm.946 1.746l-.473-.873.827-.499.473.872-.827.5z"/>
        <path fill="#992C84" d="M99.992 48.738h11.74V36.993h-11.74v11.745zm-.992.993h13.725V36H99v13.73z"/>
        <path stroke="#EC475C" stroke-width="1.5" d="M99.992 48.738h11.74V36.993h-11.74v11.745zm-.992.993h13.725V36H99v13.73z"/>
        <path fill="#EC475C" d="M96.337 52.005h.58V51h-.58v1.005zm-1.905 0h.953V51h-.953v1.005zm-1.907 0h.954V51h-.954v1.005zm-1.9.01l.55-1.015h.398v.575l.293.177-.414.762-.827-.5zm-.946 1.745l.473-.873.827.5-.473.872-.827-.5zm-.947 1.745l.473-.873.827.5-.472.873-.828-.5zm-.946 1.746l.473-.873.827.5-.474.872-.826-.5zm-.947 1.745l.473-.873.828.5-.473.872-.828-.5zm-.946 1.745l.473-.873.827.5-.473.872-.827-.499zm-.947 1.745l.473-.873.828.5-.473.872-.828-.499zM84 64.231l.473-.872.827.499-.473.873-.827-.5zM66.629 83.03l-.827-.5.288-.53.827.499-.288.531zm-.947 1.746l-.826-.5.473-.872.827.5-.474.872zm-.946 1.745l-.827-.5.473-.872.828.5-.474.872zm-.946 1.745l-.827-.5.473-.872.827.5-.473.872zm-.947 1.745l-.827-.5.474-.872.826.5-.473.872zm-.946 1.746l-.827-.5.473-.872.827.499-.473.873zm-.947 1.745l-.827-.499.474-.873.826.5-.473.872zm-.946 1.745l-.827-.499.473-.873.827.5-.473.872zM54 95.731h.953v-1.005H54v1.005zm1.906 0h.953v-1.005h-.953v1.005zm1.906 0h.953v-1.005h-.953v1.005z"/>
        <path fill="#992C84" d="M100.992 107.738h11.74V95.992h-11.74v11.746zm-.992.993h13.725V95H100v13.73z"/>
        <path stroke="#EC475C" stroke-width="1.5" d="M100.992 107.738h11.74V95.992h-11.74v11.746zm-.992.993h13.725V95H100v13.73z"/>
        <path fill="#EC475C" d="M85.289 83.03L85 82.5l.827-.499.289.53-.827.5zm.946 1.746l-.473-.873.827-.5.473.873-.827.5zm.947 1.745l-.474-.873.827-.499.474.872-.827.5zm.946 1.745l-.474-.873.828-.499.473.873-.827.499zm.946 1.745l-.472-.872.826-.5.474.873-.828.499zm.947 1.746l-.474-.873.828-.5.473.873-.827.5zm.946 1.745l-.473-.873.827-.5.474.874-.828.5zm.947 1.745l-.474-.872.828-.5.473.873-.827.499zm1.24.484h.952v-1.005h-.953v1.005zm1.905 0h.953v-1.005h-.953v1.005zm1.905 0h.953v-1.005h-.953v1.005zM74 87.001h1V86h-1v1.001zm0 2.003h1v-1.001h-1v1zm0 2.003h1v-1.002h-1v1.002zm0 2.002h1v-1.001h-1v1.001zm0 2.003h1V94.01h-1v1.002zm0 2.002h1v-1.001h-1v1.001zm0 1.101h1v-.099h-1v.1z"/>
        <path fill="#992C84" d="M67.992 43.738h11.74V31.992h-11.74v11.746zm-.992.993h13.725V31H67v13.73z"/>
        <path stroke="#EC475C" stroke-width="1.5" d="M67.992 43.738h11.74V31.992h-11.74v11.746zm-.992.993h13.725V31H67v13.73z"/>
        <path fill="#EC475C" d="M74 48.1h1V48h-1v.1zm0 2.002h1v-1.001h-1v1.001zm0 2.003h1v-1.001h-1v1.001zm0 2.003h1v-1.002h-1v1.002zm0 2.002h1V55.11h-1v1.001zm0 2.003h1V57.11h-1v1.002zm0 2.002h1v-1h-1v1z"/>
        <path fill="#992C84" d="M30 79.73h13.725V66H30v13.73zm.992-.992h11.74V66.993h-11.74v11.745z"/>
        <path stroke="#EC475C" stroke-width="1.5" d="M30.992 78.738h11.74V66.993h-11.74v11.745zM30 79.73h13.725V66H30v13.73z"/>
        <path fill="#EC475C" d="M47 74h.1v-1H47v1zm1.101 0h1.001v-1h-1.001v1zm2.002 0h1v-1h-1v1zm2.001 0h1.001v-1h-1.001v1zm2.001 0h1.002v-1h-1.002v1zm2.002 0h1.001v-1h-1.001v1zm2.002 0h1.001v-1H58.11v1z"/>
        <path fill="#992C84" d="M105.992 78.738h11.74V66.993h-11.74v11.745zm12.732.993H105V66h13.725v13.73z"/>
        <path stroke="#EC475C" stroke-width="1.5" d="M105.992 78.738h11.74V66.993h-11.74v11.745zm12.732.993H105V66h13.725v13.73z"/>
        <path fill="#EC475C" d="M90 74h1.001v-1H90v1zm2.002 0h1.001v-1h-1v1zm2.002 0h1v-1h-1v1zm2.001 0h1.001v-1h-1v1zm2.002 0h1.001v-1h-1v1zm2.002 0h1v-1h-1v1zm2.001 0h.1v-1h-.1v1z"/>
        <path fill="#FFF" d="M81.657 79.917L67 79.82l.032-4.43c.02-2.696 1.68-5.176 4.23-6.316l.165-.074.128.124a4.113 4.113 0 0 0 2.843 1.142 4.115 4.115 0 0 0 2.859-1.105l.13-.122.164.076c2.533 1.175 4.158 3.677 4.138 6.373l-.032 4.429z"/>
        <path stroke="#EC475C" stroke-width="3" d="M81.657 79.917L67 79.82l.032-4.43c.02-2.696 1.68-5.176 4.23-6.316l.165-.074.128.124a4.113 4.113 0 0 0 2.843 1.142 4.115 4.115 0 0 0 2.859-1.105l.13-.122.164.076c2.533 1.175 4.158 3.677 4.138 6.373l-.032 4.429z"/>
        <path fill="#FFF" d="M74.55 70.786c-2.526-.016-4.567-2.001-4.55-4.423.018-2.423 2.088-4.38 4.615-4.363 2.526.017 4.568 2.001 4.55 4.424-.017 2.422-2.087 4.379-4.614 4.362"/>
        <path stroke="#EC475C" stroke-width="3" d="M74.55 70.786c-2.526-.016-4.567-2.001-4.55-4.423.018-2.423 2.088-4.38 4.615-4.363 2.526.017 4.568 2.001 4.55 4.424-.017 2.422-2.087 4.379-4.614 4.362z"/>
    </g>
</svg>
