<svg xmlns="http://www.w3.org/2000/svg" xmlns:xlink="http://www.w3.org/1999/xlink" width="145" height="145" viewBox="0 0 145 145">
    <defs>
        <path id="a" d="M0 0h84.274v84H0z"/>
    </defs>
    <g fill="none" fill-rule="evenodd">
        <path fill="#FFF" d="M0 0h145v145H0z"/>
        <g transform="translate(32 33)">
            <mask id="b" fill="#fff">
                <use xlink:href="#a"/>
            </mask>
            <path fill="#EC475C" d="M81.72 62.364H56.51a1.274 1.274 0 1 0 0 2.547H81.72V70a2.552 2.552 0 0 1-2.555 2.543H5.108a2.552 2.552 0 0 1-2.555-2.543v-5.09h25.21c.706 0 1.279-.57 1.279-1.274 0-.704-.573-1.273-1.278-1.273H2.554V5.09a2.552 2.552 0 0 1 2.554-2.544h74.057A2.552 2.552 0 0 1 81.72 5.09v57.274zM33.838 81.455h16.599V75.09H33.838v6.365zM79.165 0H5.108C2.29 0 .001 2.285.001 5.09v64.911c0 2.807 2.29 5.09 5.107 5.09h26.176v6.364h-8.301c-.704 0-1.277.569-1.277 1.272 0 .704.573 1.273 1.277 1.273h38.306a1.273 1.273 0 1 0 0-2.545h-8.3V75.09h26.176c2.818 0 5.11-2.282 5.11-5.089V5.09c0-2.805-2.292-5.09-5.11-5.09z" mask="url(#b)"/>
        </g>
        <path fill="#EC475C" d="M104.394 71.547a2.56 2.56 0 0 1-2.56 2.555H48.117a2.56 2.56 0 0 1-2.557-2.555v-5.111a2.558 2.558 0 0 1 2.557-2.555h53.719a2.559 2.559 0 0 1 2.559 2.555v5.111zm-29.41 24.344c-2.308-.946-13.55-6.2-18.444-19.235h36.913c-4.849 13.14-16.064 18.28-18.47 19.235zM54.22 51.32c3.467.758 11.597 1.33 20.756-6.353 9.161 7.686 17.29 7.111 20.756 6.354v10.003H54.22V51.322zm47.615 10.004H98.29V49.626a1.28 1.28 0 0 0-1.757-1.182c-.39.153-9.681 3.69-20.708-6.12a1.275 1.275 0 0 0-1.7 0c-11.028 9.811-20.314 6.273-20.7 6.122a1.279 1.279 0 0 0-1.765 1.18v11.699h-3.545A5.12 5.12 0 0 0 43 66.435v5.112a5.118 5.118 0 0 0 5.116 5.11h5.673c5.625 16.292 20.579 21.744 20.765 21.81a1.291 1.291 0 0 0 .844 0c.187-.066 15.153-5.51 20.775-21.81h5.662a5.118 5.118 0 0 0 5.117-5.11v-5.111a5.12 5.12 0 0 0-5.117-5.111z"/>
        <path fill="#EC475C" d="M50.47 67.335c-.29.233-.47.537-.47.868 0 .316.162.635.47.866.309.221.73.354 1.15.354.42 0 .844-.133 1.149-.354.291-.23.47-.55.47-.866 0-.319-.179-.635-.47-.868-.615-.452-1.714-.44-2.3 0M58.62 67c-.89 0-1.62.727-1.62 1.618 0 .886.73 1.613 1.62 1.613.888 0 1.618-.727 1.618-1.613 0-.891-.73-1.618-1.618-1.618M74.62 67c-.89 0-1.62.727-1.62 1.618 0 .886.73 1.613 1.62 1.613.888 0 1.618-.727 1.618-1.613 0-.891-.73-1.618-1.618-1.618M89.618 67c-.906 0-1.618.727-1.618 1.618a1.61 1.61 0 0 0 1.618 1.613c.892 0 1.62-.727 1.62-1.613 0-.891-.728-1.618-1.62-1.618M66.619 67c-.905 0-1.619.727-1.619 1.618 0 .886.714 1.613 1.619 1.613.89 0 1.62-.727 1.62-1.613 0-.891-.73-1.618-1.62-1.618M81.62 67c-.89 0-1.62.727-1.62 1.618 0 .886.73 1.613 1.62 1.613a1.62 1.62 0 0 0 1.618-1.613c0-.891-.728-1.618-1.618-1.618M95.47 67.338c-.308.233-.47.549-.47.867 0 .316.162.634.47.864.309.222.712.354 1.15.354.42 0 .841-.132 1.149-.354.291-.23.47-.548.47-.864 0-.318-.179-.634-.47-.867-.615-.45-1.685-.45-2.3 0"/>
    </g>
</svg>
