<svg xmlns="http://www.w3.org/2000/svg" width="145" height="145" viewBox="0 0 145 145">
    <g fill="none" fill-rule="evenodd">
        <path fill="#FFF" d="M0 0h145v145H0z"/>
        <g fill="#EC475C">
            <path d="M68.218 114.484h36.463V80.53H68.218v33.954zm-23.9 0h21.386V80.53H44.317v33.954zm-8.802-37.727V65.44c0-.695.564-1.26 1.257-1.26h75.454a1.26 1.26 0 0 1 1.259 1.26v11.317a1.26 1.26 0 0 1-1.259 1.257H36.773a1.258 1.258 0 0 1-1.257-1.257zm8.801-15.092h60.364V44.06H44.317v17.605zm-3.183-25.15h66.73l4.192 5.03H36.943l4.191-5.03zm71.093 44.015A3.778 3.778 0 0 0 116 76.757V65.44a3.778 3.778 0 0 0-3.773-3.775h-5.03V44.06h7.546a1.257 1.257 0 0 0 .965-2.063l-6.287-7.544a1.26 1.26 0 0 0-.967-.453H40.546a1.26 1.26 0 0 0-.967.453l-6.287 7.544a1.257 1.257 0 1 0 .965 2.063h7.546v17.605h-5.03A3.778 3.778 0 0 0 33 65.44v11.317a3.778 3.778 0 0 0 3.773 3.773h5.03v33.954h-7.546a1.257 1.257 0 0 0 0 2.516h80.486a1.257 1.257 0 0 0 0-2.516h-7.546V80.53h5.03z"/>
            <path d="M64.082 72.417c.709 0 1.287-.54 1.287-1.208 0-.667-.578-1.209-1.287-1.209H43.285c-.71 0-1.285.542-1.285 1.209 0 .668.575 1.208 1.285 1.208h20.797zM73.247 72.417h32.157c.688 0 1.246-.54 1.246-1.208 0-.667-.558-1.209-1.246-1.209H73.247C72.56 70 72 70.542 72 71.209c0 .668.56 1.208 1.247 1.208M61.21 99a1.208 1.208 0 1 0-.003 2.417A1.208 1.208 0 0 0 61.21 99M78.369 107.777a1.254 1.254 0 0 0 1.78 0l17.627-17.629a1.258 1.258 0 1 0-1.78-1.78l-17.627 17.63a1.258 1.258 0 0 0 0 1.779M76.378 99.516a1.286 1.286 0 0 0 1.824 0l10.314-10.314a1.29 1.29 0 0 0-1.825-1.824L76.378 97.693a1.288 1.288 0 0 0 0 1.823M91.728 47.358a1.23 1.23 0 0 0-1.737 0l-9.63 9.632a1.222 1.222 0 0 0 0 1.734 1.22 1.22 0 0 0 1.736 0l9.63-9.628a1.23 1.23 0 0 0 0-1.738M63.991 47.358L54.36 56.99a1.225 1.225 0 0 0 0 1.734 1.222 1.222 0 0 0 1.738 0l9.63-9.628a1.23 1.23 0 0 0-1.737-1.738M84.09 47.355a1.218 1.218 0 0 0-1.719 0l-4.015 4.013a1.22 1.22 0 0 0 .86 2.079c.31 0 .623-.12.861-.357l4.013-4.014a1.217 1.217 0 0 0 0-1.721"/>
        </g>
    </g>
</svg>
