<svg xmlns="http://www.w3.org/2000/svg" xmlns:xlink="http://www.w3.org/1999/xlink" width="46" height="56" viewBox="0 0 46 56">
    <defs>
        <path id="a" d="M.094.079h35.768v45.263H.094z"/>
    </defs>
    <g fill="none" fill-rule="evenodd">
        <path fill="#FFF" d="M33.704 51.582c0 .73-.633 1.324-1.411 1.324H4.683c-.779 0-1.411-.594-1.411-1.324V14.407c0-.73.632-1.324 1.41-1.324h27.61c.78 0 1.412.593 1.412 1.324v37.175zM32.305 10H4.695C2.105 10 0 11.975 0 14.407v37.186C0 54.025 2.104 56 4.695 56h27.61C34.895 56 37 54.025 37 51.593V14.407C36.988 11.975 34.884 10 32.305 10z"/>
        <g transform="translate(10)">
            <mask id="b" fill="#fff">
                <use xlink:href="#a"/>
            </mask>
            <path fill="#FFF" d="M31.323.079H4.633C2.128.079.094 2.022.094 4.415c0 .843.706 1.517 1.587 1.517.882 0 1.588-.674 1.588-1.517 0-.719.611-1.303 1.364-1.303h26.69c.752 0 1.364.584 1.364 1.303v36.59c0 .72-.612 1.303-1.364 1.303-.882 0-1.587.675-1.587 1.517 0 .843.705 1.517 1.587 1.517 2.504 0 4.539-1.944 4.539-4.337V4.415c0-2.393-2.035-4.336-4.539-4.336" mask="url(#b)"/>
        </g>
    </g>
</svg>
