<svg xmlns="http://www.w3.org/2000/svg" xmlns:xlink="http://www.w3.org/1999/xlink" width="24" height="24" viewBox="0 0 24 24">
    <defs>
        <path id="a" d="M23.8 21.859l-6.21-6.256a.694.694 0 0 1-.076-.873c2.547-3.905 1.953-9.275-1.804-12.483-3.614-3.086-9.115-2.98-12.617.235-4.02 3.69-4.121 9.97-.303 13.79 3.255 3.259 8.295 3.655 11.995 1.207a.69.69 0 0 1 .877.076l6.196 6.242c.268.27.703.27.971.002l.97-.97a.687.687 0 0 0 .001-.97zM4.73 14.331a6.812 6.812 0 0 1 0-9.617 6.799 6.799 0 0 1 9.61 0 6.812 6.812 0 0 1 0 9.617 6.8 6.8 0 0 1-9.61 0z"/>
    </defs>
    <g fill="none" fill-rule="evenodd">
        <mask id="b" fill="#fff">
            <use xlink:href="#a"/>
        </mask>
        <use fill="#FFF" xlink:href="#a"/>
        <g fill="#FFF" mask="url(#b)">
            <path d="M0 0h24v24H0z"/>
        </g>
    </g>
</svg>
