<svg xmlns="http://www.w3.org/2000/svg" width="38" height="38" viewBox="0 0 38 38">
    <g fill="none" fill-rule="evenodd">
        <path stroke="#026FC2" d="M19 1c9.941 0 18 8.059 18 18s-8.059 18-18 18S1 28.941 1 19 9.059 1 19 1z"/>
        <path fill="#4A90E2" d="M12.087 27c-.744 0-1.293-.697-1.012-1.338C12.377 22.698 15.436 21 18.999 21c3.565 0 6.624 1.698 7.926 4.662.281.641-.268 1.338-1.012 1.338H12.087zM15 15c0-2.206 1.795-4 4-4 2.206 0 4 1.794 4 4s-1.794 4-4 4c-2.205 0-4-1.794-4-4z"/>
    </g>
</svg>
