<svg xmlns="http://www.w3.org/2000/svg" width="29" height="28" viewBox="0 0 29 28">
    <path fill="#201F1F" fill-rule="evenodd" d="M29 7.568l-4.276 12.864H9.853l.495 2.145h11.34c.372 0 .713.073 1.022.22.31.147.59.347.837.6.248.252.434.535.558.85.124.316.186.663.186 1.041 0 .379-.062.726-.186 1.04-.124.316-.31.6-.558.852a2.927 2.927 0 0 1-.837.6c-.31.146-.65.22-1.022.22a2.56 2.56 0 0 1-1.053-.22 2.15 2.15 0 0 1-.806-.6 2.979 2.979 0 0 1-.589-.851 2.467 2.467 0 0 1-.216-1.04c0-.295.051-.579.154-.852a2.72 2.72 0 0 1 .403-.725h-7.436c.166.21.3.452.403.725.103.273.155.557.155.851 0 .379-.072.726-.217 1.04-.144.316-.34.6-.589.852a2.927 2.927 0 0 1-.836.6c-.31.146-.65.22-1.023.22-.371 0-.712-.074-1.022-.22a2.926 2.926 0 0 1-.837-.6 2.978 2.978 0 0 1-.588-.851 2.467 2.467 0 0 1-.217-1.04c0-.295.052-.579.155-.852.103-.273.237-.536.403-.788.165-.21.371-.4.62-.568.247-.168.495-.294.743-.378L4.152 1.073H0V0h4.957l1.797 7.568H29zm-17.35 17.72c0-.21-.042-.41-.124-.599a1.789 1.789 0 0 0-.372-.536 1.451 1.451 0 0 0-.496-.315 1.633 1.633 0 0 0-.62-.126c-.206 0-.402.042-.588.126a2.7 2.7 0 0 0-.527.315 2.769 2.769 0 0 0-.31.536 1.48 1.48 0 0 0-.124.6c0 .21.042.42.124.63.083.21.186.378.31.504.165.169.34.295.527.379.186.084.382.126.588.126.207 0 .414-.042.62-.126a1.13 1.13 0 0 0 .496-.379c.165-.126.289-.294.372-.504.082-.21.124-.42.124-.63zm11.587 0c0-.21-.041-.41-.124-.599a2.77 2.77 0 0 0-.31-.536 2.7 2.7 0 0 0-.526-.315 1.412 1.412 0 0 0-.589-.126 1.522 1.522 0 0 0-1.115.441 1.79 1.79 0 0 0-.372.536 1.48 1.48 0 0 0-.124.6c0 .21.041.42.124.63.082.21.206.378.372.504.124.169.278.295.464.379.186.084.403.126.651.126.207 0 .403-.042.589-.126.186-.084.361-.21.526-.379.124-.126.228-.294.31-.504.083-.21.124-.42.124-.63zM9.605 19.36h14.314l3.594-10.72H7.064l2.54 10.72z"/>
</svg>
