<svg xmlns="http://www.w3.org/2000/svg" xmlns:xlink="http://www.w3.org/1999/xlink" width="80" height="69" viewBox="0 0 80 69">
    <defs>
        <path id="a" d="M0 0h80v69H0z"/>
    </defs>
    <g fill="none" fill-rule="evenodd">
        <mask id="b" fill="#fff">
            <use xlink:href="#a"/>
        </mask>
        <path fill="#FFF" d="M39.999 65.61S-.359 47.345 3.613 20.443c1.395-9.456 8.897-17.05 18.13-17.05.411 0 .826.016 1.244.044 7.676.565 14.046 5.931 16.215 13.16a.817.817 0 0 0 .797.592c.34 0 .678-.199.797-.59 2.294-7.648 9.287-13.21 17.556-13.21.103 0 .207 0 .31.003 9.26.156 16.46 7.849 17.757 17.176 3.73 26.87-36.42 45.042-36.42 45.042m39.72-45.516C78.124 8.63 69.293.18 58.716.004L58.352 0c-7.64 0-14.48 3.97-18.368 10.293C36.358 4.485 30.147.566 23.227.058c-.5-.036-.993-.055-1.483-.055C11.205.003 1.993 8.575.316 19.94c-4.298 29.12 36.587 47.98 38.328 48.768a3.29 3.29 0 0 0 2.71 0c1.733-.785 42.402-19.543 38.364-48.613" mask="url(#b)"/>
    </g>
</svg>
