<svg xmlns="http://www.w3.org/2000/svg" width="17" height="17" viewBox="0 0 17 17">
    <path fill="#EC475C" fill-rule="evenodd" d="M8.5 0a8.5 8.5 0 1 0 0 17 8.5 8.5 0 0 0 0-17zm.928 5.198l-4.053 3.06A.929.929 0 0 0 5 9c0 .29.138.563.375.742l4.057 3.06a.98.98 0 0 0 .594.198 1 1 0 0 0 .673-.261.908.908 0 0 0 .301-.679V5.94c0-.25-.103-.49-.287-.667A.99.99 0 0 0 10.02 5a.98.98 0 0 0-.592.198zM10 11.804a.175.175 0 0 1-.06.139.196.196 0 0 1-.139.057.189.189 0 0 1-.119-.043L6.077 9.153a.191.191 0 0 1 0-.306l3.605-2.804A.187.187 0 0 1 9.801 6a.198.198 0 0 1 .199.196v5.608z"/>
</svg>
