<svg xmlns="http://www.w3.org/2000/svg" width="108" height="103" viewBox="0 0 108 103">
    <g fill="none" fill-rule="evenodd" stroke="#FFF" stroke-width="2">
        <path d="M84.582 53.406V46.74L81 43.631 48.53 15.366l-4.239 3.512-33.094 28.71C7.201 51.054 1 48.202 1 42.898c0-1.801.78-3.513 2.137-4.69L44.29 2.506a6.145 6.145 0 0 1 8.06 0l41.155 35.702a6.209 6.209 0 0 1 2.137 4.69c0 5.304-6.201 8.156-10.197 4.69l-.768-.774"/>
        <path d="M85.232 98.369c0 1.774-1.285 3.254-2.987 3.569-.216.04-.444.062-.676.062H16.018c-2.024 0-3.66-1.627-3.66-3.631v-50.68"/>
        <path d="M50.214 102h-26.5V56.055a2.64 2.64 0 0 1 2.63-2.65h21.24a2.64 2.64 0 0 1 2.63 2.65V102zM107 75.32c0 12.104-9.746 21.916-21.768 21.916S63.464 87.424 63.464 75.32s9.746-21.915 21.768-21.915S107 63.218 107 75.32z"/>
        <path d="M46.429 77.703c0 1.842-1.484 3.335-3.313 3.335-1.83 0-3.312-1.493-3.312-3.335 0-1.842 1.483-3.335 3.312-3.335 1.83 0 3.313 1.493 3.313 3.335zM87.125 82.943a1.9 1.9 0 0 1-1.893 1.906 1.9 1.9 0 0 1-1.893-1.906 1.9 1.9 0 0 1 1.893-1.905 1.9 1.9 0 0 1 1.893 1.905z"/>
        <path stroke-linecap="round" stroke-linejoin="round" d="M72.929 71.51s11.903-10.72 24.607 0M75.768 75.32s8.84-8.575 18.928 0M79.554 78.18s5.371-6.432 11.357 0"/>
    </g>
</svg>
